<?xml version="1.0" encoding="UTF-8" standalone="no"?>
<svg viewBox="0 0 9.281 13.109" preserveAspectRatio="xMinYMin meet" xmlns="http://www.w3.org/2000/svg">
    <path d="M9.281,6.560c0,0.976-0.098,1.866-0.293,2.669s-0.492,1.494-0.889,2.07c-0.398,0.576-0.892,1.022-1.48,1.337c-0.59,0.315-1.281,0.473-2.076,0.473c-0.684,0-1.307-0.128-1.866-0.385c-0.56-0.257-1.039-0.652-1.437-1.187c-0.396-0.533-0.703-1.213-0.918-2.04c-0.215-0.826-0.322-1.806-0.322-2.938c0-0.976,0.1-1.868,0.298-2.674c0.198-0.807,0.495-1.499,0.89-2.074c0.394-0.576,0.887-1.022,1.479-1.338c0.593-0.315,1.283-0.473,2.071-0.473c0.684,0,1.306,0.128,1.866,0.386c0.56,0.257,1.038,0.654,1.437,1.191c0.396,0.537,0.703,1.219,0.918,2.045S9.281,5.428,9.281,6.560z M1.719,6.502c0,0.201,0.002,0.402,0.005,0.603s0.015,0.396,0.034,0.583l5.404-3.984c-0.098-0.333-0.222-0.636-0.371-0.91c-0.15-0.274-0.329-0.51-0.538-0.709c-0.208-0.199-0.446-0.354-0.713-0.465c-0.268-0.111-0.567-0.167-0.899-0.167c-0.443,0-0.846,0.107-1.207,0.322s-0.67,0.536-0.924,0.961c-0.254,0.427-0.449,0.954-0.586,1.582S1.719,5.675,1.719,6.502z M7.562,6.618c0-0.22-0.008-0.438-0.024-0.654s-0.034-0.428-0.054-0.635l-5.404,4c0.098,0.339,0.222,0.652,0.371,0.939c0.15,0.287,0.331,0.533,0.543,0.739c0.211,0.206,0.452,0.365,0.723,0.479c0.271,0.114,0.578,0.171,0.924,0.171c0.442,0,0.845-0.107,1.207-0.322c0.361-0.215,0.669-0.534,0.924-0.957c0.254-0.423,0.449-0.949,0.586-1.577S7.562,7.446,7.562,6.618z"/>
</svg>