<?xml version="1.0" encoding="UTF-8" standalone="no"?>
<svg viewBox="0 0 8.406 12.938" preserveAspectRatio="xMinYMin meet" xmlns="http://www.w3.org/2000/svg">
    <path d="M8.406,12.938h-8.406v-1.527l3.293-3.278c0.539-0.533,0.978-0.995,1.315-1.385s0.601-0.747,0.789-1.069s0.315-0.627,0.38-0.913c0.065-0.286,0.098-0.596,0.098-0.928c0-0.313-0.042-0.611-0.127-0.895c-0.084-0.284-0.215-0.533-0.39-0.749c-0.176-0.215-0.403-0.384-0.683-0.508s-0.613-0.186-1.004-0.186c-0.539,0-1.029,0.121-1.471,0.361c-0.442,0.241-0.849,0.553-1.219,0.936l-0.936-1.121c0.481-0.507,1.036-0.913,1.664-1.218s1.358-0.458,2.191-0.458c0.566,0,1.082,0.084,1.547,0.254s0.867,0.413,1.205,0.732c0.339,0.319,0.601,0.709,0.786,1.171s0.278,0.982,0.278,1.562c0,0.488-0.065,0.94-0.195,1.357s-0.327,0.831-0.591,1.244s-0.595,0.841-0.995,1.284s-0.874,0.927-1.421,1.455l-2.313,2.254h6.203V12.938z"/>
</svg>