<?xml version="1.0" encoding="UTF-8" standalone="no"?>
<svg viewBox="0 0 8.000, 13.108" preserveAspectRatio="xMinYMin meet" xmlns="http://www.w3.org/2000/svg">
    <path d="M8.000,9.061c0,0.56-0.114,1.084-0.342,1.575c-0.229,0.49-0.57,0.919-1.025,1.287c-0.456,0.367-1.029,0.657-1.72,0.868s-1.494,0.317-2.412,0.317c-0.509,0-0.964-0.015-1.368-0.043c-0.403-0.029-0.781-0.066-1.133-0.113v-1.531c0.403,0.07,0.83,0.124,1.279,0.162c0.448,0.038,0.907,0.057,1.376,0.057c0.638,0,1.183-0.057,1.636-0.171c0.452-0.114,0.821-0.278,1.107-0.493c0.287-0.215,0.495-0.476,0.625-0.781s0.195-0.651,0.195-1.035c0-0.351-0.078-0.657-0.234-0.917c-0.156-0.261-0.376-0.479-0.659-0.654s-0.621-0.307-1.015-0.395c-0.395-0.088-0.825-0.132-1.293-0.132h-1.455v-1.391h1.479c0.386,0,0.736-0.05,1.054-0.152c0.316-0.101,0.588-0.247,0.813-0.436c0.226-0.189,0.398-0.423,0.52-0.701c0.121-0.277,0.182-0.593,0.182-0.945c0-0.686-0.209-1.186-0.627-1.499c-0.417-0.313-1.03-0.47-1.84-0.47c-0.43,0-0.874,0.043-1.331,0.129c-0.456,0.086-0.946,0.215-1.468,0.387v-1.484c0.222-0.079,0.457-0.149,0.709-0.21c0.25-0.063,0.501-0.115,0.752-0.157s0.5-0.075,0.748-0.098c0.247-0.023,0.485-0.035,0.713-0.035c0.678,0,1.274,0.074,1.789,0.22s0.945,0.356,1.29,0.63s0.606,0.606,0.782,0.997c0.176,0.392,0.264,0.831,0.264,1.32c0,0.73-0.188,1.342-0.563,1.837s-0.889,0.89-1.54,1.183c0.331,0.052,0.658,0.156,0.98,0.313c0.321,0.156,0.611,0.355,0.868,0.6c0.257,0.243,0.465,0.531,0.624,0.862C7.920,8.291,8.000,8.658,8.000,9.061z"/>
</svg>