<?xml version="1.0" encoding="UTF-8" standalone="no"?>
<svg viewBox="0 0 7.780 12.937" preserveAspectRatio="xMinYMin meet" xmlns="http://www.w3.org/2000/svg">
    <path d="M7.780,8.676c0,0.632-0.137,1.209-0.41,1.729c-0.273,0.521-0.649,0.969-1.128,1.344s-1.043,0.666-1.693,0.875c-0.651,0.208-1.354,0.313-2.109,0.313c-0.188,0-0.392-0.005-0.61-0.014c-0.218-0.01-0.434-0.022-0.648-0.038c-0.215-0.017-0.425-0.034-0.63-0.053c-0.205-0.02-0.39-0.042-0.552-0.067v-1.547c0.352,0.086,0.753,0.15,1.205,0.19s0.909,0.06,1.371,0.06c0.521,0,0.989-0.062,1.405-0.186c0.417-0.124,0.771-0.302,1.063-0.533c0.293-0.231,0.518-0.513,0.674-0.842c0.156-0.33,0.234-0.7,0.234-1.111c0-0.796-0.285-1.375-0.854-1.737c-0.57-0.362-1.39-0.543-2.457-0.543h-2.423v-6.516h6.875v1.484h-5.266v3.578h1.112c0.612,0,1.207,0.055,1.786,0.167c0.579,0.11,1.095,0.304,1.547,0.581s0.816,0.648,1.093,1.114S7.780,7.973,7.780,8.676z"/>
</svg>