<?xml version="1.0" encoding="UTF-8" standalone="no"?>
<svg viewBox="0 0 8.795 12.940" preserveAspectRatio="xMinYMin meet" xmlns="http://www.w3.org/2000/svg">
    <path d="M8.795,8.724c0,0.585-0.105,1.135-0.317,1.649s-0.513,0.961-0.903,1.342s-0.86,0.68-1.41,0.898c-0.551,0.218-1.16,0.327-1.831,0.327c-0.703,0-1.325-0.112-1.865-0.337s-0.992-0.57-1.356-1.035c-0.365-0.466-0.642-1.053-0.83-1.763c-0.189-0.709-0.283-1.549-0.283-2.52c0-0.65,0.042-1.282,0.127-1.894c0.084-0.612,0.225-1.188,0.42-1.729c0.194-0.54,0.455-1.035,0.78-1.484s0.729-0.834,1.215-1.157c0.484-0.322,1.056-0.573,1.713-0.752s1.418-0.269,2.283-0.269h1.259v1.484h-1.364c-0.76,0-1.419,0.091-1.978,0.273s-1.026,0.439-1.403,0.771s-0.666,0.732-0.867,1.201s-0.328,0.993-0.38,1.572l-0.039,0.401c0.41-0.24,0.883-0.432,1.419-0.578s1.116-0.219,1.741-0.219c0.643,0,1.207,0.094,1.691,0.283c0.484,0.189,0.888,0.451,1.209,0.786c0.322,0.335,0.564,0.736,0.727,1.205C8.714,7.650,8.795,8.164,8.795,8.724z M7.014,8.833c0-0.391-0.047-0.744-0.142-1.06c-0.094-0.315-0.241-0.583-0.442-0.801c-0.202-0.218-0.457-0.388-0.766-0.508c-0.309-0.121-0.677-0.181-1.105-0.181c-0.246,0-0.496,0.023-0.75,0.069c-0.253,0.046-0.501,0.11-0.744,0.192c-0.244,0.082-0.477,0.175-0.697,0.28c-0.221,0.105-0.422,0.217-0.604,0.334c0,0.839,0.059,1.54,0.176,2.103c0.116,0.563,0.29,1.013,0.521,1.352s0.515,0.579,0.853,0.722c0.338,0.143,0.727,0.214,1.169,0.214c0.37,0,0.709-0.06,1.018-0.181s0.574-0.298,0.799-0.533c0.224-0.234,0.399-0.519,0.526-0.854C6.950,9.645,7.014,9.263,7.014,8.833z"/>
</svg>