<?xml version="1.0" encoding="UTF-8" standalone="no"?>
<svg viewBox="0 0 8.688 13.112" preserveAspectRatio="xMinYMin meet" xmlns="http://www.w3.org/2000/svg">
    <path d="M8.688,9.735c0,0.54-0.111,1.02-0.332,1.44c-0.222,0.419-0.531,0.772-0.929,1.059s-0.866,0.504-1.407,0.654c-0.541,0.149-1.127,0.224-1.759,0.224c-0.697,0-1.312-0.078-1.843-0.234c-0.53-0.156-0.975-0.374-1.333-0.654s-0.629-0.611-0.812-0.995s-0.273-0.807-0.273-1.269c0-0.78,0.219-1.453,0.656-2.019c0.438-0.566,1.113-1.08,2.027-1.542c-0.834-0.423-1.442-0.894-1.826-1.412c-0.385-0.518-0.576-1.112-0.576-1.783c0-0.41,0.084-0.807,0.254-1.192c0.169-0.384,0.425-0.726,0.767-1.025s0.77-0.539,1.284-0.718c0.514-0.18,1.119-0.269,1.816-0.269c0.657,0,1.235,0.07,1.733,0.21s0.916,0.34,1.255,0.6c0.338,0.261,0.592,0.576,0.762,0.947c0.169,0.371,0.254,0.784,0.254,1.24c0,0.742-0.207,1.374-0.62,1.894s-1.001,0.977-1.763,1.367c0.377,0.189,0.729,0.397,1.054,0.625c0.325,0.228,0.608,0.481,0.849,0.762c0.241,0.279,0.428,0.592,0.562,0.937S8.688,9.312,8.688,9.735z M6.844,9.864c0-0.241-0.039-0.475-0.117-0.702s-0.219-0.452-0.42-0.673c-0.202-0.221-0.473-0.442-0.811-0.663c-0.339-0.221-0.769-0.449-1.289-0.683c-0.443,0.214-0.815,0.427-1.118,0.639s-0.547,0.426-0.732,0.644s-0.317,0.444-0.396,0.678s-0.117,0.481-0.117,0.741c0,0.292,0.063,0.551,0.19,0.776c0.127,0.224,0.301,0.414,0.522,0.57c0.221,0.156,0.484,0.273,0.791,0.352c0.306,0.078,0.638,0.117,0.996,0.117c0.345,0,0.67-0.036,0.977-0.107c0.306-0.072,0.571-0.181,0.796-0.327s0.401-0.332,0.532-0.556C6.779,10.445,6.844,10.176,6.844,9.864z M6.672,3.139c0-0.578-0.203-1.008-0.61-1.291c-0.407-0.282-0.979-0.423-1.715-0.423c-0.729,0-1.298,0.14-1.705,0.418c-0.407,0.279-0.61,0.698-0.61,1.256c0,0.254,0.049,0.488,0.146,0.703s0.249,0.416,0.454,0.604c0.205,0.189,0.461,0.374,0.767,0.557c0.307,0.182,0.672,0.367,1.095,0.556c0.735-0.345,1.283-0.704,1.642-1.078C6.493,4.067,6.672,3.633,6.672,3.139z"/>
</svg>