<?xml version="1.0" encoding="UTF-8" standalone="no"?>
<svg viewBox="0 0 8.812 12.939" preserveAspectRatio="xMinYMin meet" xmlns="http://www.w3.org/2000/svg">
    <path d="M8.812,5.840c0,1.244-0.15,2.313-0.45,3.208c-0.3,0.896-0.743,1.631-1.33,2.207s-1.314,1.001-2.182,1.274s-1.868,0.41-3.003,0.41h-1.066v-1.484h1.183c0.841,0,1.567-0.084,2.18-0.254c0.612-0.169,1.122-0.418,1.53-0.748c0.406-0.329,0.718-0.73,0.934-1.203c0.215-0.473,0.348-1.011,0.4-1.615l0.039-0.399c-0.41,0.24-0.883,0.433-1.417,0.579c-0.534,0.146-1.114,0.218-1.74,0.218c-0.645,0-1.212-0.094-1.7-0.283c-0.489-0.188-0.895-0.452-1.217-0.791s-0.565-0.74-0.729-1.206c-0.163-0.465-0.244-0.971-0.244-1.518c0-0.592,0.107-1.145,0.322-1.658c0.216-0.514,0.518-0.961,0.905-1.342c0.388-0.381,0.853-0.682,1.394-0.903c0.541-0.221,1.138-0.332,1.79-0.332c0.632,0,1.218,0.104,1.756,0.313s1.002,0.545,1.394,1.011c0.391,0.465,0.697,1.069,0.92,1.811C8.701,3.877,8.812,4.779,8.812,5.840z M4.326,1.391c-0.365,0-0.703,0.06-1.014,0.181c-0.31,0.12-0.577,0.296-0.802,0.527c-0.226,0.231-0.403,0.516-0.534,0.854c-0.13,0.339-0.195,0.727-0.195,1.163c0,0.397,0.047,0.752,0.142,1.065s0.241,0.578,0.44,0.796c0.199,0.219,0.455,0.386,0.769,0.503s0.685,0.176,1.116,0.176c0.241,0,0.49-0.023,0.748-0.068s0.51-0.107,0.754-0.186s0.479-0.169,0.7-0.273s0.421-0.215,0.597-0.332c0-0.84-0.063-1.542-0.186-2.105c-0.125-0.563-0.304-1.017-0.539-1.358c-0.234-0.342-0.521-0.584-0.856-0.728C5.130,1.463,4.750,1.391,4.326,1.391z"/>
</svg>